<?xml version="1.0" encoding="UTF-8" standalone="no"?>
<svg
   xmlns:dc="http://purl.org/dc/elements/1.1/"
   xmlns:cc="http://creativecommons.org/ns#"
   xmlns:rdf="http://www.w3.org/1999/02/22-rdf-syntax-ns#"
   xmlns:svg="http://www.w3.org/2000/svg"
   xmlns="http://www.w3.org/2000/svg"
   id="svg4"
   version="1.1"
   height="16"
   width="16">
  <metadata
     id="metadata10">
    <rdf:RDF>
      <cc:Work
         rdf:about="">
        <dc:format>image/svg+xml</dc:format>
        <dc:type
           rdf:resource="http://purl.org/dc/dcmitype/StillImage" />
        <dc:title></dc:title>
      </cc:Work>
    </rdf:RDF>
  </metadata>
  <defs
     id="defs8" />
  <path
     id="path855"
     d="M 8.828125,0.79296875 C 7.9642537,0.84765649 7.0727334,1.0136731 6.1953125,1.3007812 4.4404706,1.874998 3.0557795,2.8254557 2.2265625,3.9550781 1.3973455,5.0847005 1.143031,6.4577243 1.7675781,7.6503906 2.3921256,8.8430568 3.6960039,9.5900594 5.2363281,9.9140625 6.7766523,10.238066 8.5850019,10.144529 10.339844,9.5703125 12.094685,8.9960956 13.479377,8.047591 14.308594,6.9179688 15.13781,5.7883465 15.392125,4.4153224 14.767578,3.2226562 14.143031,2.0299902 12.839152,1.2810345 11.298828,0.95703125 10.528666,0.79502965 9.6919963,0.73828101 8.828125,0.79296875 Z m 0.0625,1.00000005 c 0.7795144,-0.049241 1.52834,0.00105 2.201172,0.1425781 1.345664,0.283057 2.357221,0.9216051 2.791015,1.75 0.433795,0.8283948 0.288786,1.7283832 -0.380859,2.640625 C 12.832308,7.2384137 11.61803,8.1005916 10.027344,8.6210938 8.4366573,9.1415958 6.7870706,9.2186038 5.4414062,8.9355469 4.0957419,8.6524899 3.0861382,8.0139418 2.6523438,7.1855469 2.2185496,6.3571519 2.3616045,5.4591169 3.03125,4.546875 3.7008955,3.6346331 4.9151729,2.7724551 6.5058594,2.2519531 7.3012025,1.9917023 8.1111106,1.8422094 8.890625,1.7929688 Z"
     style="color:#000000;font-style:normal;font-variant:normal;font-weight:normal;font-stretch:normal;font-size:medium;line-height:normal;font-family:sans-serif;font-variant-ligatures:normal;font-variant-position:normal;font-variant-caps:normal;font-variant-numeric:normal;font-variant-alternates:normal;font-feature-settings:normal;text-indent:0;text-align:start;text-decoration:none;text-decoration-line:none;text-decoration-style:solid;text-decoration-color:#000000;letter-spacing:normal;word-spacing:normal;text-transform:none;writing-mode:lr-tb;direction:ltr;text-orientation:mixed;dominant-baseline:auto;baseline-shift:baseline;text-anchor:start;white-space:normal;shape-padding:0;clip-rule:nonzero;display:inline;overflow:visible;visibility:visible;opacity:1;isolation:auto;mix-blend-mode:normal;color-interpolation:sRGB;color-interpolation-filters:linearRGB;solid-color:#000000;solid-opacity:1;vector-effect:none;fill:#808080;fill-opacity:1;fill-rule:nonzero;stroke:none;stroke-width:1;stroke-linecap:butt;stroke-linejoin:miter;stroke-miterlimit:4;stroke-dasharray:none;stroke-dashoffset:0;stroke-opacity:1;color-rendering:auto;image-rendering:auto;shape-rendering:auto;text-rendering:auto;enable-background:accumulate" />
  <path
     id="path858"
     d="M 5.4257812,7.3847656 C 5.1008325,7.3353093 4.8708267,7.4080364 4.5742188,7.5078125 4.2776108,7.6075886 3.9495498,7.7032036 3.7363281,8.1054688 l 0.8828125,0.46875 C 4.5685273,8.6697062 4.7047684,8.5182555 4.8925781,8.4550781 5.0803879,8.3919007 5.3561443,8.3872905 5.2753906,8.375 c 0.231811,0.035281 0.6080319,0.1356163 0.9257813,0.5195312 0.06893,0.083284 0.056281,0.1030996 -0.017578,0.2636719 C 6.1097344,9.3187754 5.9572191,9.5026299 5.8574219,9.6171875 5.8315405,9.6468967 5.6218487,9.8317501 5.4101562,9.9746094 5.1984638,10.117469 4.946523,10.243491 4.8710938,10.265625 c -0.3534347,0.103713 -0.230316,0.07432 -0.484375,0.07422 -0.1456839,-5.5e-5 -0.3459832,-0.06153 -0.4042969,-0.105469 -0.07636,-0.05753 -0.121458,-0.221113 -0.125,-0.146484 -0.00243,0.05128 0.020777,-0.06644 0.064453,-0.1640629 0.043676,-0.097619 0.09258,-0.191741 0.125,-0.2539062 L 3.1601562,9.2070312 c -0.021189,0.040629 -0.088874,0.1647821 -0.1523437,0.3066407 -0.06347,0.1418586 -0.1369946,0.2861455 -0.1484375,0.5273441 -0.02157,0.454463 0.214248,0.760696 0.5214844,0.992187 0.3252825,0.245096 0.6865146,0.306521 1.0058594,0.306641 0.2109695,8.1e-5 0.3778784,5e-4 0.765625,-0.113282 C 5.4475051,11.13995 5.7101532,10.977247 5.96875,10.802734 6.2273468,10.628222 6.4447535,10.466601 6.6113281,10.275391 6.7039869,10.169027 6.933729,9.9198157 7.0917969,9.5761719 7.2498648,9.232528 7.3181444,8.6776023 6.9707031,8.2578125 6.4557089,7.6355801 5.8026523,7.4421245 5.4257812,7.3847656 Z"
     style="color:#000000;font-style:normal;font-variant:normal;font-weight:normal;font-stretch:normal;font-size:medium;line-height:normal;font-family:sans-serif;font-variant-ligatures:normal;font-variant-position:normal;font-variant-caps:normal;font-variant-numeric:normal;font-variant-alternates:normal;font-feature-settings:normal;text-indent:0;text-align:start;text-decoration:none;text-decoration-line:none;text-decoration-style:solid;text-decoration-color:#000000;letter-spacing:normal;word-spacing:normal;text-transform:none;writing-mode:lr-tb;direction:ltr;text-orientation:mixed;dominant-baseline:auto;baseline-shift:baseline;text-anchor:start;white-space:normal;shape-padding:0;clip-rule:nonzero;display:inline;overflow:visible;visibility:visible;opacity:1;isolation:auto;mix-blend-mode:normal;color-interpolation:sRGB;color-interpolation-filters:linearRGB;solid-color:#000000;solid-opacity:1;vector-effect:none;fill:#808080;fill-opacity:1;fill-rule:nonzero;stroke:none;stroke-width:1;stroke-linecap:butt;stroke-linejoin:miter;stroke-miterlimit:4;stroke-dasharray:none;stroke-dashoffset:0;stroke-opacity:1;color-rendering:auto;image-rendering:auto;shape-rendering:auto;text-rendering:auto;enable-background:accumulate" />
  <path
     id="path881"
     d="m 5.8027344,10.324219 -0.8867188,0.460937 c 0.4615072,0.890144 0.3058862,1.126434 0.2050782,1.675782 -0.081403,0.4436 -0.1172257,0.430451 -0.3769532,0.792968 -0.2407522,0.336032 -0.3822845,0.496311 -0.6386718,0.689453 -0.1808098,0.136208 -0.4934187,0.218965 -1.1152344,0.373047 -0.2816395,0.06979 -0.4962646,0.09782 -0.734375,0.152344 -0.2381105,0.05452 -0.5007998,0.145154 -0.7636719,0.320312 l 0.5546875,0.832032 c 0.1569254,-0.104564 0.2580323,-0.137981 0.4316406,-0.177735 0.1736084,-0.03975 0.4190538,-0.07376 0.7519532,-0.15625 0.6072619,-0.150475 1.0610367,-0.230427 1.4785156,-0.544921 0.3419011,-0.257562 0.5822173,-0.535762 0.8476562,-0.90625 0.2464637,-0.344005 0.4459816,-0.63486 0.5488282,-1.195313 0.083441,-0.454707 0.2631864,-1.224872 -0.3027344,-2.316406 z"
     style="color:#000000;font-style:normal;font-variant:normal;font-weight:normal;font-stretch:normal;font-size:medium;line-height:normal;font-family:sans-serif;font-variant-ligatures:normal;font-variant-position:normal;font-variant-caps:normal;font-variant-numeric:normal;font-variant-alternates:normal;font-feature-settings:normal;text-indent:0;text-align:start;text-decoration:none;text-decoration-line:none;text-decoration-style:solid;text-decoration-color:#000000;letter-spacing:normal;word-spacing:normal;text-transform:none;writing-mode:lr-tb;direction:ltr;text-orientation:mixed;dominant-baseline:auto;baseline-shift:baseline;text-anchor:start;white-space:normal;shape-padding:0;clip-rule:nonzero;display:inline;overflow:visible;visibility:visible;opacity:1;isolation:auto;mix-blend-mode:normal;color-interpolation:sRGB;color-interpolation-filters:linearRGB;solid-color:#000000;solid-opacity:1;vector-effect:none;fill:#808080;fill-opacity:1;fill-rule:nonzero;stroke:none;stroke-width:1;stroke-linecap:butt;stroke-linejoin:miter;stroke-miterlimit:4;stroke-dasharray:none;stroke-dashoffset:0;stroke-opacity:1;color-rendering:auto;image-rendering:auto;shape-rendering:auto;text-rendering:auto;enable-background:accumulate" />
</svg>
