<?xml version="1.0" encoding="UTF-8" standalone="no"?>
<svg
   xmlns:dc="http://purl.org/dc/elements/1.1/"
   xmlns:cc="http://creativecommons.org/ns#"
   xmlns:rdf="http://www.w3.org/1999/02/22-rdf-syntax-ns#"
   xmlns:svg="http://www.w3.org/2000/svg"
   xmlns="http://www.w3.org/2000/svg"
   id="svg4"
   version="1.1"
   height="16"
   width="16">
  <metadata
     id="metadata10">
    <rdf:RDF>
      <cc:Work
         rdf:about="">
        <dc:format>image/svg+xml</dc:format>
        <dc:type
           rdf:resource="http://purl.org/dc/dcmitype/StillImage" />
        <dc:title></dc:title>
      </cc:Work>
    </rdf:RDF>
  </metadata>
  <defs
     id="defs8" />
  <path
     id="path937"
     d="M 8,3.5 C 6.2530724,3.5 4.6639218,3.9668907 3.4804688,4.7558594 2.2970157,5.5448281 1.5,6.6927655 1.5,8 1.5,9.3072345 2.2970157,10.455172 3.4804688,11.244141 4.6639218,12.033109 6.2530724,12.5 8,12.5 c 1.7469276,0 3.336078,-0.466891 4.519531,-1.255859 C 13.702984,10.455172 14.5,9.3072345 14.5,8 14.5,6.6927655 13.702984,5.5448281 12.519531,4.7558594 11.336078,3.9668907 9.7469276,3.5 8,3.5 Z m 0,1 c 1.5667809,0 2.976724,0.4291441 3.964844,1.0878906 C 12.952964,6.2466372 13.5,7.0980955 13.5,8 13.5,8.9019045 12.952964,9.7533628 11.964844,10.412109 10.976724,11.070856 9.5667809,11.5 8,11.5 6.4332191,11.5 5.0232761,11.070856 4.0351562,10.412109 3.0470364,9.7533628 2.5,8.9019045 2.5,8 2.5,7.0980955 3.0470364,6.2466372 4.0351562,5.5878906 5.0232761,4.9291441 6.4332191,4.5 8,4.5 Z"
     style="color:#000000;font-style:normal;font-variant:normal;font-weight:normal;font-stretch:normal;font-size:medium;line-height:normal;font-family:sans-serif;font-variant-ligatures:normal;font-variant-position:normal;font-variant-caps:normal;font-variant-numeric:normal;font-variant-alternates:normal;font-feature-settings:normal;text-indent:0;text-align:start;text-decoration:none;text-decoration-line:none;text-decoration-style:solid;text-decoration-color:#000000;letter-spacing:normal;word-spacing:normal;text-transform:none;writing-mode:lr-tb;direction:ltr;text-orientation:mixed;dominant-baseline:auto;baseline-shift:baseline;text-anchor:start;white-space:normal;shape-padding:0;clip-rule:nonzero;display:inline;overflow:visible;visibility:visible;opacity:1;isolation:auto;mix-blend-mode:normal;color-interpolation:sRGB;color-interpolation-filters:linearRGB;solid-color:#000000;solid-opacity:1;vector-effect:none;fill:#808080;fill-opacity:1;fill-rule:nonzero;stroke:none;stroke-width:1;stroke-linecap:butt;stroke-linejoin:miter;stroke-miterlimit:4;stroke-dasharray:none;stroke-dashoffset:0;stroke-opacity:1;color-rendering:auto;image-rendering:auto;shape-rendering:auto;text-rendering:auto;enable-background:accumulate" />
</svg>
